HIERARCHY
ROOT SimulationBone
{
	OFFSET 0.000000 0.000000 0.000000
	CHANNELS 6 Xposition Yposition Zposition Zrotation Yrotation Xrotation 
	JOINT Hips
	{
		OFFSET 0.000000 0.000000 0.000000
		CHANNELS 6 Xposition Yposition Zposition Zrotation Yrotation Xrotation 
		JOINT LeftUpLeg
		{
			OFFSET 0.103458 1.857826 10.548496
			CHANNELS 3 Zrotation Yrotation Xrotation
			JOINT LeftLeg
			{
				OFFSET 43.500000 -0.000027 -0.000004
				CHANNELS 3 Zrotation Yrotation Xrotation
				JOINT LeftFoot
				{
					OFFSET 42.372200 0.000015 -0.000005
					CHANNELS 3 Zrotation Yrotation Xrotation
					JOINT LeftToe
					{
						OFFSET 17.299997 -0.000002 0.000005
						CHANNELS 3 Zrotation Yrotation Xrotation
						End Site
						{
							OFFSET 0.000000 0.000000 0.000000
						}
					}
				}
			}
		}
		JOINT RightUpLeg
		{
			OFFSET 0.103458 1.857826 -10.548510
			CHANNELS 3 Zrotation Yrotation Xrotation
			JOINT RightLeg
			{
				OFFSET 43.500046 -0.000015 0.000000
				CHANNELS 3 Zrotation Yrotation Xrotation
				JOINT RightFoot
				{
					OFFSET 42.372261 -0.000011 0.000021
					CHANNELS 3 Zrotation Yrotation Xrotation
					JOINT RightToe
					{
						OFFSET 17.299997 -0.000004 0.000000
						CHANNELS 3 Zrotation Yrotation Xrotation
						End Site
						{
							OFFSET 0.000000 0.000000 0.000000
						}
					}
				}
			}
		}
		JOINT Spine
		{
			OFFSET 6.901967 -2.603728 0.000002
			CHANNELS 3 Zrotation Yrotation Xrotation
			JOINT Spine1
			{
				OFFSET 12.588098 -0.000006 -0.000001
				CHANNELS 3 Zrotation Yrotation Xrotation
				JOINT Spine2
				{
					OFFSET 12.343200 0.000006 -0.000002
					CHANNELS 3 Zrotation Yrotation Xrotation
					JOINT Neck
					{
						OFFSET 25.832905 -0.000006 -0.000005
						CHANNELS 3 Zrotation Yrotation Xrotation
						JOINT Head
						{
							OFFSET 11.766604 0.000006 0.000006
							CHANNELS 3 Zrotation Yrotation Xrotation
							End Site
							{
								OFFSET 0.000000 0.000000 0.000000
							}
						}
					}
					JOINT LeftShoulder
					{
						OFFSET 19.745914 -1.480366 6.000100
						CHANNELS 3 Zrotation Yrotation Xrotation
						JOINT LeftArm
						{
							OFFSET 11.284136 -0.000006 -0.000022
							CHANNELS 3 Zrotation Yrotation Xrotation
							JOINT LeftForeArm
							{
								OFFSET 33.000057 0.000006 0.000029
								CHANNELS 3 Zrotation Yrotation Xrotation
								JOINT LeftHand
								{
									OFFSET 25.199999 0.000011 -0.000002
									CHANNELS 3 Zrotation Yrotation Xrotation
									End Site
									{
										OFFSET 0.000000 0.000000 0.000000
									}
								}
							}
						}
					}
					JOINT RightShoulder
					{
						OFFSET 19.746107 -1.480371 -6.000078
						CHANNELS 3 Zrotation Yrotation Xrotation
						JOINT RightArm
						{
							OFFSET 11.284137 -0.000012 0.000000
							CHANNELS 3 Zrotation Yrotation Xrotation
							JOINT RightForeArm
							{
								OFFSET 33.000088 0.000017 0.000001
								CHANNELS 3 Zrotation Yrotation Xrotation
								JOINT RightHand
								{
									OFFSET 25.199789 0.000135 0.000430
									CHANNELS 3 Zrotation Yrotation Xrotation
									End Site
									{
										OFFSET 0.000000 0.000000 0.000000
									}
								}
							}
						}
					}
				}
			}
		}
	}
}
MOTION
Frames: 15
Frame Time: 0.033333
251.458938 0.000000 -226.068163 0.000000 132.555592 0.000000 3.852269 88.517403 0.940060 101.400208 1.524664 172.074276 176.249985 3.939106 179.638428 -29.793743 -6.282787 -12.832908 84.249680 9.459092 2.562907 21.454558 0.003112 0.000019 174.573024 7.077106 -166.040382 -72.959671 2.265723 -2.714921 69.438162 4.067822 6.020374 21.454550 -0.003092 0.000002 8.216503 -0.747804 0.503302 6.414302 -1.522177 0.964620 6.096137 -1.516458 0.973789 10.177342 -2.321960 18.019169 -7.064936 -17.289256 22.998849 -155.750006 -66.481476 -26.439032 -7.989185 57.111747 29.829830 -29.625484 -17.502703 1.408598 6.580883 1.271090 6.724955 -166.343096 75.581063 15.451358 -14.917193 -59.721193 -29.621284 -28.116071 14.377328 -1.154683 9.244971 -6.185276 -27.699349 
251.515320 0.000000 -228.657329 0.000000 135.662853 0.000000 3.752409 88.713516 1.071798 101.564801 1.733423 172.872870 177.716878 3.143601 -177.562283 -29.689094 -6.591343 -11.848682 84.832035 8.671938 2.077612 21.454558 0.003116 0.000018 171.763985 7.344305 -168.438954 -74.783529 2.112683 -0.908446 70.187591 2.774681 6.246093 21.454551 -0.003097 0.000001 8.300164 -0.770658 0.331062 6.583877 -1.558780 0.617946 6.265675 -1.555149 0.627347 9.997266 -2.332625 18.135129 -7.117156 -17.217315 23.097311 -156.268089 -66.840969 -25.894436 -9.215320 56.728409 28.940208 -30.549049 -17.952920 1.455643 6.547281 1.705324 7.090918 -165.030826 75.439562 16.794428 -12.851643 -59.712560 -30.633979 -27.677977 13.822769 -1.111356 9.279114 -7.091925 -27.722821 
251.572291 0.000000 -231.254486 0.000000 138.881122 0.000000 3.556787 88.865738 1.162528 101.641497 1.835663 173.515789 178.934113 2.340698 -175.146363 -29.521560 -6.648544 -10.709142 85.282343 7.778726 1.557401 21.454558 0.003108 0.000018 169.272291 7.299394 -172.408113 -74.502255 2.364907 1.298699 71.303166 1.231131 6.691314 21.454551 -0.003100 0.000004 8.411667 -0.826893 0.209822 6.808490 -1.664586 0.370808 6.490261 -1.662455 0.380853 10.056743 -2.129559 18.054567 -7.023804 -17.151380 23.000008 -156.773619 -67.221581 -25.362828 -10.645906 56.284061 27.816512 -31.809905 -18.531227 1.518722 6.276016 1.456297 7.431988 -164.399976 75.338025 17.440407 -11.353364 -59.860584 -31.658804 -27.021878 13.647591 -1.088774 9.690383 -7.497674 -26.923504 
251.631599 0.000000 -233.858221 0.000000 142.205116 0.000000 3.220773 88.922142 1.237993 101.485078 1.626826 174.090193 179.618839 1.644903 -172.768802 -29.396502 -6.728913 -9.510975 85.630683 6.848515 1.009212 21.454555 0.003107 0.000017 167.071686 7.154905 -176.525078 -72.345043 1.774121 3.516918 72.903124 -0.422549 6.814927 21.454550 -0.003098 0.000004 8.517727 -0.941417 0.072205 7.022815 -1.885385 0.087305 6.704540 -1.884968 0.098688 10.134974 -2.141965 17.946945 -7.003311 -16.935922 22.832530 -156.699593 -67.313714 -25.437527 -11.977943 55.666455 25.959978 -33.694939 -19.102222 1.596637 5.854599 1.063304 8.311188 -164.431600 75.345476 17.408016 -10.050427 -60.100460 -32.595179 -26.789079 13.870979 -1.099145 10.174704 -7.597756 -27.862920 
251.701198 0.000000 -236.468098 0.000000 145.631676 0.000000 2.865132 89.091652 1.282981 101.144429 1.631487 174.638628 -179.787204 0.466509 -170.785260 -28.767947 -6.767219 -8.035027 85.677866 5.758505 0.557110 21.454558 0.003110 0.000017 165.702848 6.343709 179.130262 -67.920508 0.581571 6.033034 74.047795 -2.423782 6.321558 21.454545 -0.003092 -0.000001 8.612365 -0.998926 -0.029172 7.213991 -1.994017 -0.120422 6.895692 -1.994843 -0.108379 10.318809 -2.225471 17.785328 -7.020944 -16.822853 22.643682 -156.956299 -67.407861 -25.169893 -13.056843 55.010893 24.277533 -35.741123 -19.726957 1.684723 5.569047 0.415619 8.458790 -164.005601 75.493412 17.842565 -9.259268 -60.291439 -33.511196 -26.854064 13.948041 -1.105177 10.253926 -7.356712 -29.437108 
251.783791 0.000000 -239.087638 0.000000 149.165836 0.000000 2.524324 89.114609 1.288304 100.752361 1.382731 175.087869 -179.595002 -0.501295 -168.595078 -28.410305 -6.835972 -6.680961 85.813185 4.724158 -0.026936 21.454558 0.003106 0.000015 165.272218 5.673900 174.314719 -62.043232 -1.144537 8.165028 75.694595 -4.020226 6.224175 21.454557 -0.003089 -0.000001 8.708968 -1.085849 -0.097036 7.408920 -2.163200 -0.263303 7.090564 -2.164885 -0.250233 10.506478 -2.330558 17.615514 -7.117878 -16.787565 22.479869 -157.303109 -67.596135 -24.807261 -14.103746 54.450466 22.778773 -37.477504 -20.221540 1.759796 5.268188 -0.430211 7.473322 -163.103510 75.676577 18.763474 -8.882275 -60.382547 -34.316356 -27.043997 13.998831 -1.111664 10.623726 -6.938780 -30.732160 
251.881822 0.000000 -241.713756 0.000000 152.816082 0.000000 2.234225 89.212509 1.159517 100.199525 1.165627 175.866823 -179.666733 -1.493396 -165.839001 -27.752309 -6.873919 -5.433936 85.699470 3.761930 -0.638691 21.454557 0.003104 0.000017 165.981274 5.399896 168.718541 -54.339974 -2.312655 8.444023 76.935749 -4.572542 5.043997 21.454548 -0.003094 -0.000002 8.790639 -1.115477 -0.203779 7.574483 -2.215177 -0.480082 7.256143 -2.218166 -0.466697 10.618127 -2.631804 17.468460 -7.455802 -16.525474 22.302709 -157.626505 -67.787182 -24.468910 -15.355799 54.037349 21.064046 -38.805556 -20.641419 1.821515 4.893738 -1.142258 6.523712 -162.693002 75.588980 19.184041 -8.748295 -59.983329 -34.829433 -27.204129 13.987766 -1.113704 10.234124 -6.846524 -31.144693 
251.997882 0.000000 -244.339135 0.000000 156.577114 0.000000 2.040408 89.186241 0.950382 99.590975 0.672339 176.703899 179.873045 -2.163608 -162.913126 -27.336531 -6.843872 -4.200497 85.687687 2.788748 -1.325667 21.454558 0.003106 0.000017 167.501565 5.956406 161.950288 -45.792778 -3.010508 5.324967 77.962429 -2.572775 4.351117 21.454553 -0.003090 0.000000 8.858172 -1.153938 -0.291212 7.711614 -2.285874 -0.658674 7.393250 -2.289943 -0.644856 10.561698 -2.752576 17.323370 -7.861545 -16.459812 22.195620 -157.878607 -68.115708 -24.201916 -16.866992 53.741585 19.211640 -39.684509 -20.792885 1.854867 5.043313 -1.632927 5.699695 -162.050295 75.851614 19.838226 -8.262506 -59.894359 -35.148990 -27.877190 14.029032 -1.128097 10.167126 -6.554774 -30.931410 
252.124655 0.000000 -246.957147 0.000000 160.437621 0.000000 1.953104 89.135696 0.595246 99.102708 0.041026 177.481697 179.454205 -2.615490 -159.568942 -26.666158 -6.911214 -3.208800 85.599318 1.975773 -2.035117 21.454557 0.003103 0.000017 169.969421 7.290299 152.584978 -36.495197 -2.189001 0.678299 77.897324 0.430278 3.336978 21.454551 -0.003092 0.000001 8.949618 -1.183029 -0.321229 7.895380 -2.341332 -0.722453 7.577014 -2.345788 -0.708295 10.291308 -2.702841 17.218839 -8.468147 -16.315078 22.143968 -157.953193 -68.441719 -24.118687 -18.699910 53.488058 17.120151 -40.207097 -20.837925 1.872013 5.010576 -1.677139 5.585000 -161.025890 76.024001 20.882986 -7.940197 -59.663369 -35.527997 -28.439204 14.088425 -1.141975 9.802191 -6.190548 -29.393944 
252.265569 0.000000 -249.553859 0.000000 164.382988 0.000000 1.867758 89.028526 0.174360 98.664978 -0.840852 178.580729 178.682530 -2.776703 -155.922359 -26.115949 -7.001000 -2.164418 85.394433 1.117051 -2.757082 21.454557 0.003112 0.000018 172.673808 9.952500 140.771415 -27.355690 0.706493 -1.388683 75.447444 3.013313 7.066972 21.454555 -0.003091 -0.000002 9.056610 -1.209658 -0.403437 8.111423 -2.388023 -0.890754 7.793063 -2.393493 -0.876317 9.919226 -2.936053 17.028222 -9.307115 -15.711932 21.883141 -158.554809 -68.649104 -23.493226 -20.488122 53.125129 15.194861 -40.306073 -21.077530 1.890423 5.046774 -1.429536 5.745241 -160.103391 75.900054 21.827384 -8.352176 -59.063678 -35.553211 -28.684882 14.030084 -1.142703 9.646340 -5.420019 -27.741409 
252.418600 0.000000 -252.114932 0.000000 168.392302 0.000000 1.668017 88.828461 -0.000973 98.438814 -1.525053 179.977514 177.428521 -3.238097 -152.528465 -26.158361 -7.062542 -0.681919 85.205975 -0.078990 -3.591067 21.454562 0.003107 0.000017 174.481554 12.415894 136.257602 -23.359488 3.391221 -1.765929 76.560465 4.733345 12.645583 21.454545 -0.003089 0.000001 9.220550 -1.182232 -0.522457 8.441473 -2.323158 -1.129905 8.123136 -2.330073 -1.115857 9.676881 -2.709473 16.654170 -10.317401 -15.644220 21.656342 -159.025000 -69.246971 -22.997355 -22.197825 53.191871 13.081436 -40.096653 -21.417849 1.906971 4.817632 -1.677911 6.461188 -160.052192 75.818412 21.880880 -9.067939 -58.609744 -34.491584 -28.816472 13.752467 -1.127275 9.374721 -4.419596 -27.003190 
252.579942 0.000000 -254.626327 0.000000 172.439442 0.000000 1.412070 88.627037 0.100761 98.100127 -1.578158 -178.993905 175.798004 -4.071504 -150.132489 -26.568297 -6.253173 1.106253 84.983973 -1.614457 -4.887044 21.454555 0.003106 0.000016 175.098907 13.525502 146.028816 -23.884050 4.741118 -4.308395 79.613757 5.447162 9.833084 21.454550 -0.003085 0.000000 9.330669 -1.025885 -0.523025 8.659683 -2.009707 -1.121459 8.341426 -2.016579 -1.109306 9.750824 -2.341787 16.317288 -11.328562 -15.689590 21.530884 -160.205393 -69.720686 -21.771716 -23.025184 53.286452 11.045440 -39.894489 -21.635671 1.915720 4.851776 -2.540767 6.697417 -160.937207 75.556372 20.979845 -10.738590 -58.063971 -33.392361 -27.724878 13.624389 -1.099449 8.846575 -3.068514 -25.755429 
252.747582 0.000000 -257.072473 0.000000 176.499540 0.000000 1.100223 88.814011 0.322439 97.502325 -0.792790 -178.707658 174.606027 -5.834397 -146.645541 -25.165161 -5.696108 1.610194 83.731323 -2.395883 -6.534024 21.454558 0.003107 0.000018 175.886824 12.588807 158.052599 -24.133324 3.201100 -7.250382 80.554131 6.909623 7.517320 21.454555 -0.003098 0.000000 9.351977 -0.708022 -0.364761 8.696462 -1.386579 -0.781703 8.378285 -1.391411 -0.773321 9.985357 -2.068529 16.052218 -11.928562 -15.805322 21.431122 -160.944119 -69.619579 -21.010844 -23.720796 53.327419 9.136661 -39.253992 -21.802071 1.909260 5.433003 -3.688678 6.323848 -162.115291 75.578775 19.774916 -12.868076 -57.742856 -30.937834 -26.598860 13.657271 -1.082254 8.875030 -1.903186 -26.908626 
252.916758 0.000000 -259.439336 0.000000 180.553537 0.000000 0.662627 89.175842 0.658006 96.576141 0.169956 -178.956257 173.437860 -8.359204 -146.007998 -22.472864 -4.595454 3.339351 81.539229 -4.102482 -7.864482 21.454553 0.003108 0.000017 176.839635 10.024398 161.351840 -22.950899 1.927060 -5.922118 81.079530 5.836391 7.109312 21.454553 -0.003092 0.000000 9.269170 -0.413823 -0.116992 8.526654 -0.817845 -0.264131 8.208529 -0.819563 -0.259193 10.042513 -1.470432 15.856779 -11.728692 -15.901184 21.277721 -160.151899 -69.582948 -21.828952 -24.254053 53.705279 7.805159 -38.544912 -21.864819 1.894454 5.355209 -5.065624 4.756963 -163.102513 75.830755 18.762941 -14.785220 -57.708555 -27.576581 -26.502160 13.851476 -1.093073 9.850967 -1.282848 -28.196665 
253.089270 0.000000 -261.712964 0.000000 184.582999 0.000000 0.117893 89.598358 1.008083 95.467196 1.131718 -179.099263 171.940751 -11.154100 -145.077781 -19.298244 -4.944458 3.281669 78.537169 -4.555422 -8.865955 21.454557 0.003107 0.000017 177.543910 7.864701 163.444665 -20.894872 1.748337 -4.436531 80.642520 4.664020 6.532791 21.454553 -0.003093 0.000000 9.170713 -0.126580 0.087586 8.328400 -0.259073 0.165846 8.010303 -0.258203 0.167402 9.660601 -0.159719 15.861291 -11.550665 -16.000459 21.379165 -159.939125 -69.713425 -22.046561 -23.517099 54.114786 7.628668 -38.762826 -22.125732 1.917290 5.738567 -6.712388 3.513938 -163.416333 75.747399 18.442960 -16.871954 -57.113905 -24.649109 -27.120979 14.436995 -1.141041 10.759832 -0.956748 -29.775827 
